<?xml version="1.0" encoding="UTF-8" standalone="no"?>
<svg
   xmlns:dc="http://purl.org/dc/elements/1.1/"
   xmlns:cc="http://creativecommons.org/ns#"
   xmlns:rdf="http://www.w3.org/1999/02/22-rdf-syntax-ns#"
   xmlns:svg="http://www.w3.org/2000/svg"
   xmlns="http://www.w3.org/2000/svg"
   xmlns:sodipodi="http://sodipodi.sourceforge.net/DTD/sodipodi-0.dtd"
   xmlns:inkscape="http://www.inkscape.org/namespaces/inkscape"
   viewBox="0 0 111.16136 112.389"
   version="1.1"
   id="svg993"
   sodipodi:docname="html5-logo.svg"
   width="111.16136"
   height="112.389"
   inkscape:version="0.92.3 (2405546, 2018-03-11)">
  <metadata
     id="metadata999">
    <rdf:RDF>
      <cc:Work
         rdf:about="">
        <dc:format>image/svg+xml</dc:format>
        <dc:type
           rdf:resource="http://purl.org/dc/dcmitype/StillImage" />
        <dc:title>HTML5 Logo Badge</dc:title>
      </cc:Work>
    </rdf:RDF>
  </metadata>
  <defs
     id="defs997" />
  <sodipodi:namedview
     pagecolor="#ffffff"
     bordercolor="#666666"
     borderopacity="1"
     objecttolerance="10"
     gridtolerance="10"
     guidetolerance="10"
     inkscape:pageopacity="0"
     inkscape:pageshadow="2"
     inkscape:window-width="1366"
     inkscape:window-height="704"
     id="namedview995"
     showgrid="false"
     inkscape:zoom="0.4609375"
     inkscape:cx="226"
     inkscape:cy="256"
     inkscape:window-x="0"
     inkscape:window-y="27"
     inkscape:window-maximized="1"
     inkscape:current-layer="svg993" />
  <title
     id="title983">HTML5 Logo Badge</title>
  <g
     id="g1005"
     transform="matrix(0.24647752,0,0,0.21950977,-7.3943256,0)">
    <path
       id="path985"
       d="M 71,460 30,0 h 451 l -41,460 -185,52"
       inkscape:connector-curvature="0"
       style="fill:#e34f26" />
    <path
       id="path987"
       d="M 256,472 405,431 440,37 H 256"
       inkscape:connector-curvature="0"
       style="fill:#ef652a" />
    <path
       id="path989"
       d="m 256,208 h -75 l -5,-58 h 80 V 94 h -1 -141 l 1,15 14,156 h 127 z m 0,147 h -1 l -63,-17 -4,-45 h -30 -26 l 7,89 116,32 h 1 z"
       inkscape:connector-curvature="0"
       style="fill:#ebebeb" />
    <path
       id="path991"
       d="m 255,208 v 57 h 70 l -7,73 -63,17 v 59 l 116,-32 1,-10 13,-149 2,-15 h -16 z m 0,-114 v 35 21 0 h 137 v 0 0 l 1,-12 3,-29 1,-15 z"
       inkscape:connector-curvature="0"
       style="fill:#ffffff" />
  </g>
</svg>
